# xmcd CD database file
#
# Track frame offsets:
#	150
#	6505
#	26090
#	48322
#	87932
#	114822
#	163175
#	197177
#	214487
#	244430
#	261005
#
# Disc length: 3549 seconds
#
# Revision: 2
# Processed by: cddbd v1.5.2PL0 Copyright (c) Steve Scherf et al.
# Submitted via: CDex 1.51
#
DISCID=9c0ddb0b
DTITLE=Courtney Pine - Modern Day Jazz Stories
DYEAR=1995
DGENRE=Jazz
TTITLE0=Prelude - The Water Of Life
TTITLE1=The 37th Chamber
TTITLE2=Don't 'Kplain
TTITLE3=Dah Blessing
TTITLE4=In The Garden Of Eden (Thinking Inside Of You)
TTITLE5=Creation Stepper
TTITLE6=Absolution
TTITLE7=Each One (Must) Teach One
TTITLE8=The Unknown Warrior (Song For My Forefathers)
TTITLE9=I've Known Rivers
TTITLE10=Outro - Guiding Light
EXTD=YEAR: 1995
EXTT0=
EXTT1=
EXTT2=
EXTT3=
EXTT4=
EXTT5=
EXTT6=
EXTT7=
EXTT8=
EXTT9=
EXTT10=
PLAYORDER=
